<svg class="black-logo" version="1.1" id="Layer_1"
    xmlns="http://www.w3.org/2000/svg"
    xmlns:xlink="http://www.w3.org/1999/xlink" x="0px" y="0px" height="80px" viewBox="-422 269 114 23" style="enable-background:new -422 269 114 23;" xml:space="preserve">
    <style type="text/css">
						.st0b{fill:url(#Clip-2_1_b);}
						.st1b{fill:url(#Clip-5_1_b);}
						.st2b{fill:url(#Clip-8_1_b);}
						.st3b{fill:url(#Clip-11_1_b);}
						.st4b{fill:url(#Clip-14_1_b);}
					</style>
    <g id="Mattr-Logo">
        <radialGradient id="Clip-2_1_b" cx="-840.4334" cy="591.8338" r="1.8674" gradientTransform="matrix(-7.1262 13.8314 14.2445 7.339 -14778.9424 7555.2271)" gradientUnits="userSpaceOnUse">
            <stop offset="0" style="stop-color:#000"></stop>
            <stop offset="0.1919" style="stop-color:#000"></stop>
            <stop offset="1" style="stop-color:#000;stop-opacity:0"></stop>
        </radialGradient>
        <polygon id="Clip-2b" class="st0b" points="-370,269 -370,273.3 -364.3,273.3 -364.3,291.6 -360.2,291.6 -360.2,273.3 
							-354.5,273.3 -354.5,269 				"></polygon>
        <radialGradient id="Clip-5_1_b" cx="-860.7245" cy="532.8777" r="1.2578" gradientTransform="matrix(9.527260e-016 -15.5592 -15.5592 -9.527261e-016 7952.1982 -13100.54)" gradientUnits="userSpaceOnUse">
            <stop offset="0" style="stop-color:#000;stop-opacity:0"></stop>
            <stop offset="1" style="stop-color:#000"></stop>
        </radialGradient>
        <polygon id="Clip-5b" class="st1b" points="-346.7,269 -346.7,273.3 -341,273.3 -341,291.6 -336.9,291.6 -336.9,273.3 
							-331.2,273.3 -331.2,269 				"></polygon>
        <radialGradient id="Clip-8_1_b" cx="-820.4823" cy="568.1671" r="1.1349" gradientTransform="matrix(13.1664 15.7082 15.7082 -13.1664 1488.6638 20642.8613)" gradientUnits="userSpaceOnUse">
            <stop offset="0" style="stop-color:#000"></stop>
            <stop offset="0.4714" style="stop-color:#000"></stop>
            <stop offset="0.9954" style="stop-color:#000;stop-opacity:0"></stop>
        </radialGradient>
        <polygon id="Clip-8b" class="st2b" points="-384.3,269 -394.8,291.6 -390.2,291.6 -384.4,279.2 -378.9,291.6 -374.3,291.6 				"></polygon>
        <radialGradient id="Clip-11_1_b" cx="-811.6293" cy="575.1802" r="1.2473" gradientTransform="matrix(7.8942 11.7384 11.7384 -7.8942 -667.0043 14336.8818)" gradientUnits="userSpaceOnUse">
            <stop offset="0" style="stop-color:#000;stop-opacity:0"></stop>
            <stop offset="1" style="stop-color:#000"></stop>
        </radialGradient>
        <path id="Clip-11b" class="st3b" d="M-322.5,269v4.3h3.6c0.1,0,0.3,0,0.4,0l0,0c1.9,0.2,3.4,1.6,3.4,3.4l0,0
							c0,1.8-1.5,3.2-3.4,3.4l0,0c-0.1,0-0.3,0-0.4,0l0,0h-1.4v4.3h1.4c0.5,0,1-0.1,1.5-0.1l0,0l4.1,7.3h4.8l-5.2-9.2
							c1.6-1.4,2.6-3.5,2.6-5.7l0,0c0-4.3-3.6-7.7-8-7.7l0,0H-322.5z"></path>
        <radialGradient id="Clip-14_1_b" cx="-820.7763" cy="569.1981" r="1.3703" gradientTransform="matrix(12.5474 16.0422 16.0422 -12.5474 747.3234 20578.4023)" gradientUnits="userSpaceOnUse">
            <stop offset="0" style="stop-color:#000"></stop>
            <stop offset="0.5442" style="stop-color:#000"></stop>
            <stop offset="1" style="stop-color:#000;stop-opacity:0"></stop>
        </radialGradient>
        <polygon id="Clip-14b" class="st4b" points="-401.6,269 -408.8,276.3 -411.8,279.4 -414.9,276.3 -422,269 -422,279.3 -422,291.6 
							-422,291.6 -417.8,291.6 -417.8,279.3 -411.8,285.5 -405.8,279.3 -405.8,291.6 -401.6,291.6 -401.6,291.6 -401.6,279.3 				"></polygon>
    </g>
</svg>