<!--
    Copyright (c) MATTR Limited, 2020. All rights reserved.
    "MATTR" is a trademark of MATTR Limited, registered in New Zealand and other countries.
    https://mattr.global
-->
<svg width="222" height="40" viewBox="0 0 222 40" fill="none" xmlns="http://www.w3.org/2000/svg">
<path d="M18.47 18.3964L0 0V39.9804V40H7.568L7.5684 18.22L18.47 29.0784L29.372 18.22L29.3716 40H36.94V39.9804V0L18.47 18.3964Z" fill="url(#paint0_radial)"/>
<path d="M57.7372 40L68.2048 17.9552L78.2328 40H86.5424L68.3488 0L49.3656 40H57.7372Z" fill="url(#paint1_radial)"/>
<path d="M104.589 40H112.153V7.564H122.481V0H94.26V7.564H104.589V40Z" fill="url(#paint2_radial)"/>
<path d="M136.521 0H164.742V7.564H154.414V40H146.85V7.564H136.521V0Z" fill="url(#paint3_radial)"/>
<path d="M206.19 40L196.804 23.766C198.289 22.529 199.487 20.9828 200.313 19.2353C201.14 17.4878 201.575 15.581 201.588 13.648C201.588 6.1222 195.108 0 187.144 0H180.532V7.564H187.144C187.381 7.564 187.615 7.57449 187.846 7.59548C191.311 7.90748 194.024 10.5029 194.024 13.648C194.024 16.7931 191.311 19.389 187.846 19.7012C187.615 19.722 187.381 19.7325 187.144 19.7327H184.632V27.2967H187.144C188.087 27.2958 189.028 27.2074 189.955 27.0327L197.449 40H206.19Z" fill="url(#paint4_radial)"/>
<path d="M212.495 5.1914C212.509 4.2974 212.786 3.42748 213.293 2.69094C213.8 1.95439 214.513 1.38407 215.343 1.05163C216.173 0.719195 217.083 0.639467 217.958 0.822469C218.834 1.00547 219.635 1.44304 220.262 2.08019C220.89 2.71735 221.315 3.52567 221.484 4.40361C221.653 5.28154 221.559 6.18993 221.214 7.01464C220.869 7.83934 220.287 8.54358 219.543 9.03888C218.798 9.53417 217.924 9.79843 217.03 9.79844C216.428 9.79886 215.832 9.67945 215.277 9.44718C214.722 9.21491 214.219 8.87442 213.797 8.44559C213.374 8.01675 213.042 7.50815 212.818 6.94944C212.595 6.39073 212.485 5.7931 212.495 5.1914V5.1914ZM220.414 5.1914C220.386 4.52818 220.164 3.8877 219.776 3.34957C219.387 2.81143 218.849 2.39937 218.228 2.1646C217.607 1.92983 216.931 1.88271 216.283 2.02909C215.636 2.17547 215.046 2.5089 214.586 2.98793C214.127 3.46696 213.818 4.07047 213.699 4.72345C213.579 5.37643 213.655 6.05008 213.915 6.66067C214.175 7.27126 214.609 7.79186 215.163 8.15777C215.717 8.52368 216.366 8.71876 217.03 8.71876C217.486 8.71495 217.936 8.62004 218.354 8.43962C218.772 8.25919 219.15 7.99691 219.465 7.6682C219.781 7.3395 220.027 6.95103 220.19 6.52566C220.353 6.10029 220.429 5.64663 220.414 5.1914V5.1914ZM215.374 2.81564H217.246C217.672 2.80303 218.085 2.95956 218.395 3.25095C218.706 3.54233 218.888 3.94484 218.902 4.37032C218.895 4.66913 218.794 4.95806 218.613 5.19596C218.432 5.43386 218.18 5.60861 217.894 5.69532L219.19 7.5668H217.966L216.886 5.9828H216.454V7.5668H215.374L215.374 2.81564ZM217.246 4.975C217.328 4.98488 217.41 4.97737 217.489 4.95294C217.567 4.92852 217.639 4.88775 217.701 4.83333C217.762 4.77891 217.811 4.71208 217.845 4.63725C217.879 4.56241 217.896 4.48128 217.896 4.39922C217.896 4.31716 217.879 4.23603 217.845 4.1612C217.811 4.08637 217.762 4.01953 217.701 3.96511C217.639 3.91069 217.567 3.86992 217.489 3.8455C217.41 3.82108 217.328 3.81356 217.246 3.82344H216.454V4.975H217.246Z" fill="#3B3634"/>
<defs>
<radialGradient id="paint0_radial" cx="0" cy="0" r="1" gradientUnits="userSpaceOnUse" gradientTransform="translate(37.9316 39.4988) scale(54.1743)">
<stop stop-color="#333132" stop-opacity="0"/>
<stop offset="0.6" stop-color="#333132"/>
</radialGradient>
<radialGradient id="paint1_radial" cx="0" cy="0" r="1" gradientUnits="userSpaceOnUse" gradientTransform="translate(64.7531 21.2512) scale(36.2862)">
<stop offset="0.3988" stop-color="#333132"/>
<stop offset="0.8" stop-color="#333132" stop-opacity="0"/>
</radialGradient>
<radialGradient id="paint2_radial" cx="0" cy="0" r="1" gradientUnits="userSpaceOnUse" gradientTransform="translate(98.4664 21.0748) scale(42.3634)">
<stop offset="0.3" stop-color="#333132"/>
<stop offset="0.7" stop-color="#333132" stop-opacity="0"/>
</radialGradient>
<radialGradient id="paint3_radial" cx="0" cy="0" r="1" gradientUnits="userSpaceOnUse" gradientTransform="translate(162.15 -4.7843) scale(67.1724)">
<stop offset="0.4012" stop-color="#333132"/>
<stop offset="0.9" stop-color="#333132" stop-opacity="0"/>
</radialGradient>
<radialGradient id="paint4_radial" cx="0" cy="0" r="1" gradientUnits="userSpaceOnUse" gradientTransform="translate(176.782 -0.715046) scale(48.1837)">
<stop offset="0.1" stop-color="#333132" stop-opacity="0"/>
<stop offset="0.7" stop-color="#333132"/>
</radialGradient>
</defs>
</svg>
